G04 #@! TF.GenerationSoftware,KiCad,Pcbnew,(5.1.9)-1*
G04 #@! TF.CreationDate,2021-04-18T14:16:20+07:00*
G04 #@! TF.ProjectId,kicad-weight-scale-6-ch,6b696361-642d-4776-9569-6768742d7363,rev?*
G04 #@! TF.SameCoordinates,Original*
G04 #@! TF.FileFunction,Soldermask,Bot*
G04 #@! TF.FilePolarity,Negative*
%FSLAX46Y46*%
G04 Gerber Fmt 4.6, Leading zero omitted, Abs format (unit mm)*
G04 Created by KiCad (PCBNEW (5.1.9)-1) date 2021-04-18 14:16:20*
%MOMM*%
%LPD*%
G01*
G04 APERTURE LIST*
%ADD10O,1.600000X2.600000*%
%ADD11C,2.600000*%
%ADD12O,1.700000X1.700000*%
%ADD13R,1.700000X1.700000*%
%ADD14R,2.500000X2.500000*%
%ADD15O,2.600000X1.600000*%
%ADD16R,3.500000X3.500000*%
%ADD17C,3.100000*%
%ADD18C,3.000000*%
%ADD19R,3.000000X3.000000*%
%ADD20C,2.000000*%
%ADD21R,2.000000X2.000000*%
%ADD22C,1.600000*%
%ADD23R,1.600000X1.600000*%
G04 APERTURE END LIST*
D10*
X147660000Y-82500000D03*
X145120000Y-82500000D03*
X142580000Y-82500000D03*
X140040000Y-82500000D03*
X137500000Y-82500000D03*
X134960000Y-82500000D03*
X132420000Y-82500000D03*
X129880000Y-82500000D03*
X127340000Y-82500000D03*
X124800000Y-82500000D03*
X122260000Y-82500000D03*
X119720000Y-82500000D03*
X117180000Y-82500000D03*
X114640000Y-82500000D03*
X112100000Y-82500000D03*
X109560000Y-82500000D03*
X107020000Y-82500000D03*
X104480000Y-82500000D03*
X101940000Y-82500000D03*
X101940000Y-105660000D03*
X104480000Y-105660000D03*
X107020000Y-105660000D03*
X109560000Y-105660000D03*
X112100000Y-105660000D03*
X114640000Y-105660000D03*
X117180000Y-105660000D03*
X119720000Y-105660000D03*
X122260000Y-105660000D03*
X124800000Y-105660000D03*
X127340000Y-105660000D03*
X129880000Y-105660000D03*
X132420000Y-105660000D03*
X134960000Y-105660000D03*
X137500000Y-105660000D03*
X140040000Y-105660000D03*
X142580000Y-105660000D03*
X145120000Y-105660000D03*
X147660000Y-105660000D03*
D11*
X155400000Y-52600000D03*
X168100000Y-52600000D03*
D10*
X168080000Y-66020000D03*
X165540000Y-66020000D03*
X163000000Y-66020000D03*
X160460000Y-66020000D03*
X157920000Y-66020000D03*
X155380000Y-66020000D03*
X155380000Y-62680000D03*
X157920000Y-62680000D03*
X160460000Y-62680000D03*
X163000000Y-62680000D03*
X165540000Y-62680000D03*
X168080000Y-62680000D03*
D11*
X131400000Y-52600000D03*
X144100000Y-52600000D03*
D10*
X144080000Y-66020000D03*
X141540000Y-66020000D03*
X139000000Y-66020000D03*
X136460000Y-66020000D03*
X133920000Y-66020000D03*
X131380000Y-66020000D03*
X131380000Y-62680000D03*
X133920000Y-62680000D03*
X136460000Y-62680000D03*
X139000000Y-62680000D03*
X141540000Y-62680000D03*
X144080000Y-62680000D03*
D12*
X117210000Y-112250000D03*
D13*
X119750000Y-112250000D03*
D14*
X113000000Y-112840000D03*
X107920000Y-112840000D03*
X124500000Y-116000000D03*
X124500000Y-119500000D03*
X124500000Y-126500000D03*
X124500000Y-130000000D03*
X101600000Y-116000000D03*
X101600000Y-130000000D03*
D11*
X197400000Y-104400000D03*
X197400000Y-117100000D03*
D15*
X183980000Y-117080000D03*
X183980000Y-114540000D03*
X183980000Y-112000000D03*
X183980000Y-109460000D03*
X183980000Y-106920000D03*
X183980000Y-104380000D03*
X187320000Y-104380000D03*
X187320000Y-106920000D03*
X187320000Y-109460000D03*
X187320000Y-112000000D03*
X187320000Y-114540000D03*
X187320000Y-117080000D03*
X179590000Y-72160000D03*
X179590000Y-69620000D03*
X179590000Y-67080000D03*
X179590000Y-64540000D03*
X179590000Y-62000000D03*
X179590000Y-59460000D03*
X179590000Y-56920000D03*
X179590000Y-54380000D03*
X179550000Y-51840000D03*
X194870000Y-51840000D03*
X194870000Y-54380000D03*
X194870000Y-56920000D03*
X194870000Y-59460000D03*
X194870000Y-62000000D03*
X194870000Y-64540000D03*
X194870000Y-67080000D03*
X194870000Y-69620000D03*
X194870000Y-72160000D03*
G36*
G01*
X111575000Y-141750000D02*
X109825000Y-141750000D01*
G75*
G02*
X108950000Y-140875000I0J875000D01*
G01*
X108950000Y-139125000D01*
G75*
G02*
X109825000Y-138250000I875000J0D01*
G01*
X111575000Y-138250000D01*
G75*
G02*
X112450000Y-139125000I0J-875000D01*
G01*
X112450000Y-140875000D01*
G75*
G02*
X111575000Y-141750000I-875000J0D01*
G01*
G37*
G36*
G01*
X107000000Y-144500000D02*
X105000000Y-144500000D01*
G75*
G02*
X104250000Y-143750000I0J750000D01*
G01*
X104250000Y-142250000D01*
G75*
G02*
X105000000Y-141500000I750000J0D01*
G01*
X107000000Y-141500000D01*
G75*
G02*
X107750000Y-142250000I0J-750000D01*
G01*
X107750000Y-143750000D01*
G75*
G02*
X107000000Y-144500000I-750000J0D01*
G01*
G37*
D16*
X106000000Y-137000000D03*
D17*
X172950000Y-147350000D03*
X145150000Y-116850000D03*
X172950000Y-116850000D03*
D10*
X149830000Y-115410000D03*
X152370000Y-115410000D03*
X154910000Y-115410000D03*
X157450000Y-115410000D03*
X159990000Y-115410000D03*
X162530000Y-115410000D03*
X165070000Y-115410000D03*
X167610000Y-115410000D03*
D18*
X122080000Y-145000000D03*
D19*
X117000000Y-145000000D03*
D20*
X161250000Y-76900000D03*
D21*
X161250000Y-84500000D03*
D22*
X123750000Y-137750000D03*
D23*
X123750000Y-135250000D03*
D22*
X148750000Y-73250000D03*
D23*
X151250000Y-73250000D03*
D12*
X139460000Y-73000000D03*
D13*
X142000000Y-73000000D03*
D12*
X170000000Y-85620000D03*
X170000000Y-83080000D03*
X170000000Y-80540000D03*
D13*
X170000000Y-78000000D03*
D12*
X173750000Y-85620000D03*
X173750000Y-83080000D03*
X173750000Y-80540000D03*
D13*
X173750000Y-78000000D03*
D12*
X177500000Y-85620000D03*
X177500000Y-83080000D03*
X177500000Y-80540000D03*
D13*
X177500000Y-78000000D03*
D12*
X115540000Y-75500000D03*
D13*
X113000000Y-75500000D03*
D12*
X188540000Y-75500000D03*
D13*
X186000000Y-75500000D03*
D12*
X185710000Y-124000000D03*
D13*
X188250000Y-124000000D03*
D12*
X177500000Y-98710000D03*
D13*
X177500000Y-101250000D03*
D14*
X119800000Y-91300000D03*
X119800000Y-96600000D03*
X154600000Y-88000000D03*
X154600000Y-90000000D03*
X154600000Y-98000000D03*
X154600000Y-100000000D03*
D15*
X107340000Y-72160000D03*
X107340000Y-69620000D03*
X107340000Y-67080000D03*
X107340000Y-64540000D03*
X107340000Y-62000000D03*
X107340000Y-59460000D03*
X107340000Y-56920000D03*
X107340000Y-54380000D03*
X107300000Y-51840000D03*
X122620000Y-51840000D03*
X122620000Y-54380000D03*
X122620000Y-56920000D03*
X122620000Y-59460000D03*
X122620000Y-62000000D03*
X122620000Y-64540000D03*
X122620000Y-67080000D03*
X122620000Y-69620000D03*
X122620000Y-72160000D03*
X179340000Y-148160000D03*
X179340000Y-145620000D03*
X179340000Y-143080000D03*
X179340000Y-140540000D03*
X179340000Y-138000000D03*
X179340000Y-135460000D03*
X179340000Y-132920000D03*
X179340000Y-130380000D03*
X179300000Y-127840000D03*
X194620000Y-127840000D03*
X194620000Y-130380000D03*
X194620000Y-132920000D03*
X194620000Y-135460000D03*
X194620000Y-138000000D03*
X194620000Y-140540000D03*
X194620000Y-143080000D03*
X194620000Y-145620000D03*
X194620000Y-148160000D03*
D11*
X197400000Y-82400000D03*
X197400000Y-95100000D03*
D15*
X183980000Y-95080000D03*
X183980000Y-92540000D03*
X183980000Y-90000000D03*
X183980000Y-87460000D03*
X183980000Y-84920000D03*
X183980000Y-82380000D03*
X187320000Y-82380000D03*
X187320000Y-84920000D03*
X187320000Y-87460000D03*
X187320000Y-90000000D03*
X187320000Y-92540000D03*
X187320000Y-95080000D03*
D11*
X144600000Y-147400000D03*
X131900000Y-147400000D03*
D10*
X131920000Y-133980000D03*
X134460000Y-133980000D03*
X137000000Y-133980000D03*
X139540000Y-133980000D03*
X142080000Y-133980000D03*
X144620000Y-133980000D03*
X144620000Y-137320000D03*
X142080000Y-137320000D03*
X139540000Y-137320000D03*
X137000000Y-137320000D03*
X134460000Y-137320000D03*
X131920000Y-137320000D03*
D11*
X168600000Y-147400000D03*
X155900000Y-147400000D03*
D10*
X155920000Y-133980000D03*
X158460000Y-133980000D03*
X161000000Y-133980000D03*
X163540000Y-133980000D03*
X166080000Y-133980000D03*
X168620000Y-133980000D03*
X168620000Y-137320000D03*
X166080000Y-137320000D03*
X163540000Y-137320000D03*
X161000000Y-137320000D03*
X158460000Y-137320000D03*
X155920000Y-137320000D03*
M02*
