M48
INCH,TZ
T1C0.0157
T2C0.0197
T3C0.0315
T4C0.0394
T5C0.0598
T6C0.1260
%
G90
G05
T1
X46654Y-31398
T2
X40650Y-31496
X42520Y-47047
X44094Y-34961
X44094Y-36614
X45118Y-34961
X45118Y-36614
X46161Y-34961
X46161Y-47047
X49311Y-30118
X49902Y-29724
X50171Y-26378
X53346Y-29724
X53839Y-28051
X55315Y-27657
X56594Y-36378
X56594Y-37323
X58661Y-43110
X59252Y-26083
X59252Y-26575
X59744Y-43110
X64075Y-40846
X64173Y-22343
X64173Y-22835
X67323Y-25984
X67815Y-41142
T3
X48720Y-53248
X48720Y-54232
X58563Y-28839
X59547Y-28839
T4
X40000Y-45669
X40000Y-51181
X40134Y-32480
X40134Y-41598
X41134Y-32480
X41134Y-41598
X42134Y-32480
X42134Y-41598
X42244Y-20409
X42260Y-21409
X42260Y-22409
X42260Y-23409
X42260Y-24409
X42260Y-25409
X42260Y-26409
X42260Y-27409
X42260Y-28409
X42488Y-44425
X43134Y-32480
X43134Y-41598
X44134Y-32480
X44134Y-41598
X44488Y-29724
X44488Y-44425
X45134Y-32480
X45134Y-41598
X45488Y-29724
X46134Y-32480
X46134Y-41598
X46146Y-44193
X47134Y-32480
X47134Y-41598
X47146Y-44193
X47165Y-35945
X47165Y-38031
X48134Y-32480
X48134Y-41598
X48276Y-20409
X48276Y-21409
X48276Y-22409
X48276Y-23409
X48276Y-24409
X48276Y-25409
X48276Y-26409
X48276Y-27409
X48276Y-28409
X49016Y-45669
X49016Y-47047
X49016Y-49803
X49016Y-51181
X49134Y-32480
X49134Y-41598
X50134Y-32480
X50134Y-41598
X51134Y-32480
X51134Y-41598
X51724Y-24835
X51724Y-25835
X51937Y-52906
X51937Y-53906
X52134Y-32480
X52134Y-41598
X52724Y-24835
X52724Y-25835
X52937Y-52906
X52937Y-53906
X53134Y-32480
X53134Y-41598
X53724Y-24835
X53724Y-25835
X53937Y-52906
X53937Y-53906
X54134Y-32480
X54134Y-41598
X54724Y-24835
X54724Y-25835
X54906Y-28740
X54937Y-52906
X54937Y-53906
X55134Y-32480
X55134Y-41598
X55724Y-24835
X55724Y-25835
X55906Y-28740
X55937Y-52906
X55937Y-53906
X56134Y-32480
X56134Y-41598
X56724Y-24835
X56724Y-25835
X56937Y-52906
X56937Y-53906
X57134Y-32480
X57134Y-41598
X58134Y-32480
X58134Y-41598
X58988Y-45437
X59988Y-45437
X60866Y-34646
X60866Y-35433
X60866Y-38583
X60866Y-39370
X60988Y-45437
X61173Y-24835
X61173Y-25835
X61386Y-52906
X61386Y-53906
X61988Y-45437
X62173Y-24835
X62173Y-25835
X62386Y-52906
X62386Y-53906
X62988Y-45437
X63173Y-24835
X63173Y-25835
X63386Y-52906
X63386Y-53906
X63484Y-30276
X63484Y-33268
X63988Y-45437
X64173Y-24835
X64173Y-25835
X64386Y-52906
X64386Y-53906
X64988Y-45437
X65173Y-24835
X65173Y-25835
X65386Y-52906
X65386Y-53906
X65988Y-45437
X66173Y-24835
X66173Y-25835
X66386Y-52906
X66386Y-53906
X66929Y-30709
X66929Y-31709
X66929Y-32709
X66929Y-33709
X68406Y-30709
X68406Y-31709
X68406Y-32709
X68406Y-33709
X69882Y-30709
X69882Y-31709
X69882Y-32709
X69882Y-33709
X69882Y-38862
X69882Y-39862
X70591Y-50331
X70606Y-51331
X70606Y-52331
X70606Y-53331
X70606Y-54331
X70606Y-55331
X70606Y-56331
X70606Y-57331
X70606Y-58331
X70689Y-20409
X70705Y-21409
X70705Y-22409
X70705Y-23409
X70705Y-24409
X70705Y-25409
X70705Y-26409
X70705Y-27409
X70705Y-28409
X72591Y-32433
X72591Y-33433
X72591Y-34433
X72591Y-35433
X72591Y-36433
X72591Y-37433
X72591Y-41094
X72591Y-42094
X72591Y-43094
X72591Y-44094
X72591Y-45094
X72591Y-46094
X73114Y-48819
X73228Y-29724
X73591Y-32433
X73591Y-33433
X73591Y-34433
X73591Y-35433
X73591Y-36433
X73591Y-37433
X73591Y-41094
X73591Y-42094
X73591Y-43094
X73591Y-44094
X73591Y-45094
X73591Y-46094
X74114Y-48819
X74228Y-29724
X76622Y-50331
X76622Y-51331
X76622Y-52331
X76622Y-53331
X76622Y-54331
X76622Y-55331
X76622Y-56331
X76622Y-57331
X76622Y-58331
X76720Y-20409
X76720Y-21409
X76720Y-22409
X76720Y-23409
X76720Y-24409
X76720Y-25409
X76720Y-26409
X76720Y-27409
X76720Y-28409
T5
X46063Y-57087
X48063Y-57087
T6
X50098Y-57480
X50591Y-28445
X63091Y-41634
X68386Y-28465
X70571Y-48228
T4
G00X41339Y-53937
M15
G01X42126Y-53937
M16
G05
G00X41339Y-56299
M15
G01X42126Y-56299
M16
G05
G00X43583Y-55512
M15
G01X43583Y-54724
M16
G05
T0
M30
